<mxfile><diagram id="JarMPzb55Jt8SovZW2__" name="ページ1"><mxGraphModel dx="518" dy="322" grid="1" gridSize="10" guides="1" tooltips="1" connect="1" arrows="1" fold="1" page="1" pageScale="1" pageWidth="900" pageHeight="1600" math="0" shadow="0"><root><mxCell id="0"/><mxCell id="1" parent="0"/><mxCell id="5" value="" style="whiteSpace=wrap;html=1;aspect=fixed;fillColor=none;strokeColor=none;" vertex="1" parent="1"><mxGeometry x="130" y="130" width="140" height="140" as="geometry"/></mxCell><mxCell id="2" value="" style="endArrow=none;entryX=0;entryY=0;entryDx=0;entryDy=0;exitX=1;exitY=1;exitDx=0;exitDy=0;strokeWidth=13;strokeColor=#888888;fontSize=14;fontColor=none;noLabel=1;labelBackgroundColor=none;" parent="1" edge="1"><mxGeometry width="50" height="50" relative="1" as="geometry"><mxPoint x="240" y="240" as="sourcePoint"/><mxPoint x="160" y="160" as="targetPoint"/></mxGeometry></mxCell><mxCell id="3" value="" style="endArrow=none;exitX=1;exitY=0;exitDx=0;exitDy=0;entryX=0;entryY=1;entryDx=0;entryDy=0;strokeWidth=13;strokeColor=#888888;fontSize=14;fontFamily=Helvetica;fontColor=none;noLabel=1;labelBackgroundColor=none;" parent="1" edge="1"><mxGeometry width="50" height="50" relative="1" as="geometry"><mxPoint x="240" y="160" as="sourcePoint"/><mxPoint x="160" y="240" as="targetPoint"/></mxGeometry></mxCell><mxCell id="4" value="" style="endArrow=none;strokeWidth=13;strokeColor=#888888;fontSize=14;fontColor=none;noLabel=1;labelBackgroundColor=none;" parent="1" edge="1"><mxGeometry width="50" height="50" relative="1" as="geometry"><mxPoint x="200" y="260.89302476986427" as="sourcePoint"/><mxPoint x="200" y="140" as="targetPoint"/></mxGeometry></mxCell></root></mxGraphModel></diagram></mxfile>